<?xml version="1.0" encoding="UTF-8" standalone="no"?>
<!-- Created with Inkscape (http://www.inkscape.org/) -->

<svg
   xmlns:dc="http://purl.org/dc/elements/1.1/"
   xmlns:cc="http://creativecommons.org/ns#"
   xmlns:rdf="http://www.w3.org/1999/02/22-rdf-syntax-ns#"
   xmlns:svg="http://www.w3.org/2000/svg"
   xmlns="http://www.w3.org/2000/svg"
   xmlns:sodipodi="http://sodipodi.sourceforge.net/DTD/sodipodi-0.dtd"
   xmlns:inkscape="http://www.inkscape.org/namespaces/inkscape"
   width="2"
   height="2"
   viewBox="0 0 0.52916665 0.52916668"
   version="1.1"
   id="svg3772"
   inkscape:version="0.92.5 (2060ec1f9f, 2020-04-08)"
   sodipodi:docname="drawing.svg">
  <defs
     id="defs3766" />
  <sodipodi:namedview
     id="base"
     pagecolor="#ffffff"
     bordercolor="#666666"
     borderopacity="1.0"
     inkscape:pageopacity="0.0"
     inkscape:pageshadow="2"
     inkscape:zoom="253.42707"
     inkscape:cx="2.4778078"
     inkscape:cy="0.75705356"
     inkscape:document-units="mm"
     inkscape:current-layer="layer1"
     showgrid="false"
     units="px"
     inkscape:window-width="1920"
     inkscape:window-height="1016"
     inkscape:window-x="0"
     inkscape:window-y="27"
     inkscape:window-maximized="1" />
  <metadata
     id="metadata3769">
    <rdf:RDF>
      <cc:Work
         rdf:about="">
        <dc:format>image/svg+xml</dc:format>
        <dc:type
           rdf:resource="http://purl.org/dc/dcmitype/StillImage" />
        <dc:title></dc:title>
      </cc:Work>
    </rdf:RDF>
  </metadata>
  <g
     inkscape:label="Layer 1"
     inkscape:groupmode="layer"
     id="layer1"
     transform="translate(0,-296.47082)">
    <path
       style="fill:none;stroke:#000000;stroke-width:0.26458332px;stroke-linecap:butt;stroke-linejoin:miter;stroke-opacity:1"
       d="m 0.01252826,296.65233 c 2.3988e-4,0.003 0.0038551,0.003 0.0052201,0.005 4.3164e-4,6.5e-4 6.4365e-4,10e-4 0.001044,0.002 0.006626,0.011 -0.0036193,-0.007 0.0052201,0.007 8.2487e-4,10e-4 0.0013322,0.003 0.002088,0.004 9.8547e-4,0.002 0.0022817,0.003 0.0031321,0.005 0.0012459,0.003 0.0019608,0.006 0.0031321,0.008 9.1969e-4,0.002 0.0022124,0.004 0.003132,0.006 0.0011713,0.003 0.0019246,0.006 0.0031321,0.008 0.004981,0.0112 0.004367,0.008 0.0093962,0.0177 0.0014647,0.003 0.0024929,0.006 0.0041761,0.008 0.0014698,0.002 0.0034801,0.004 0.0052201,0.006 0.0017402,0.002 0.0034801,0.004 0.0052201,0.006 0.0017402,0.002 0.0037609,0.004 0.0052201,0.006 0.0057029,0.0143 -9.4377e-4,-3.7e-4 0.0041761,0.007 8.6334e-4,10e-4 0.0010541,0.003 0.0020881,0.004 0.0018058,0.002 0.0047055,0.003 0.0062641,0.005 4.3471e-4,0.002 5.8447e-4,0.005 0.0020881,0.007 5.9055e-4,7.9e-4 0.001542,0.001 0.0020881,0.002 8.6333e-4,10e-4 0.0012247,0.003 0.0020881,0.004 5.461e-4,8.2e-4 0.001392,10e-4 0.0020881,0.002 0.001392,0.002 0.0026697,0.005 0.0041761,0.007 9.3424e-4,0.001 0.0022368,0.003 0.003132,0.004 0.0012012,0.002 0.0019309,0.004 0.0031321,0.006 8.9535e-4,0.002 0.0022098,0.003 0.0031321,0.004 8.2497e-4,0.001 0.001253,0.003 0.002088,0.004 0.003214,0.005 0.007032,0.01 0.0104402,0.0146 0.001428,0.002 0.00267,0.004 0.004176,0.006 0.0105369,0.014 9.234e-4,7.3e-4 0.008352,0.009 0.001132,10e-4 0.001968,0.003 0.003132,0.004 0.0111493,0.0124 0.001361,0.002 0.0114842,0.009 0.001554,10e-4 0.002563,0.003 0.004176,0.004 0.0171662,0.012 -0.00331,-0.004 0.0114842,0.005 0.002293,10e-4 0.004066,0.004 0.006264,0.005 0.001641,10e-4 0.003499,0.002 0.00522,0.003 0.001064,6.7e-4 0.002088,10e-4 0.003132,0.002 0.001044,7e-4 0.002245,10e-4 0.003132,0.002 5.5033e-4,5.5e-4 4.9371e-4,0.002 0.001044,0.002 2.4608e-4,2.4e-4 7.1384e-4,-1.1e-4 0.001044,0 7.3819e-4,2.4e-4 0.001538,4.9e-4 0.002088,10e-4 2.4608e-4,2.5e-4 -2.4607e-4,8e-4 0,10e-4 2.4608e-4,2.4e-4 7.9799e-4,-2.5e-4 0.001044,0 2.4608e-4,2.4e-4 -1.5563e-4,7.3e-4 0,0.001 2.201e-4,4.4e-4 8.2391e-4,6e-4 0.001044,10e-4 1.5563e-4,3.1e-4 -1.5564e-4,7.3e-4 0,0.001 2.2009e-4,4.4e-4 8.2391e-4,6e-4 0.001044,10e-4 1.5564e-4,3.1e-4 -1.9304e-4,7.5e-4 0,10e-4 5.461e-4,8.2e-4 0.001498,0.001 0.002088,0.002 0.002113,0.003 -1.749e-5,0.002 0.002088,0.005 5.0641e-4,8.4e-4 0.001542,0.001 0.002088,0.002 8.6333e-4,0.001 0.001392,0.003 0.002088,0.004 3.4793e-4,7e-4 5.7705e-4,10e-4 0.001044,0.002 5.9055e-4,7.9e-4 0.001542,10e-4 0.002088,0.002 8.6333e-4,10e-4 0.001263,0.003 0.002088,0.004 9.2233e-4,0.001 0.002167,0.003 0.003132,0.004 0.001285,0.002 0.001847,0.004 0.003132,0.006 0.001273,0.002 0.001331,1.1e-4 0.002088,0.003 1.688e-4,6.7e-4 -1.6881e-4,10e-4 0,0.002 1.8873e-4,7.6e-4 8.5539e-4,0.001 0.001044,0.002 1.6881e-4,6.8e-4 -1.1442e-4,0.001 0,0.002 2.3589e-4,0.001 8.4111e-4,0.003 0.001044,0.004 2.4608e-4,0.002 0,0.003 0,0.005 0,0.005 0,0.009 0,0.0136 0,7.2e-4 -1.8878e-4,0.005 0,0.005 2.201e-4,4.4e-4 8.2391e-4,6e-4 0.001044,10e-4 3.1115e-4,6.3e-4 -4.9212e-4,0.002 0,0.002 2.4608e-4,2.5e-4 7.9799e-4,-2.5e-4 0.001044,0 5.2202e-4,5.2e-4 -5.2202e-4,0.003 0,0.003 2.4608e-4,2.5e-4 7.9798e-4,-2.4e-4 0.001044,0 2.4608e-4,2.5e-4 -1.5563e-4,7.4e-4 0,10e-4 2.201e-4,4.4e-4 8.2392e-4,6e-4 0.001044,10e-4 3.1115e-4,6.2e-4 -4.9212e-4,0.002 0,0.002 2.4608e-4,2.5e-4 7.9798e-4,-2.5e-4 0.001044,0 4.9212e-4,4.9e-4 -4.9213e-4,0.002 0,0.002 2.4607e-4,2.4e-4 7.9798e-4,-2.5e-4 0.001044,0 2.4608e-4,2.4e-4 -1.5563e-4,7.3e-4 0,10e-4 2.201e-4,4.4e-4 8.2391e-4,6.1e-4 0.001044,0.001 1.5563e-4,3.1e-4 -2.4608e-4,8e-4 0,10e-4 2.4608e-4,2.5e-4 7.9798e-4,-2.4e-4 0.001044,0 2.4608e-4,2.5e-4 -1.5563e-4,7.4e-4 0,0.001 0.00129,0.003 0.001044,-3.6e-4 0.001044,0.002 0,3.5e-4 0,6.9e-4 0,0.001 0,3.5e-4 -2.4608e-4,8e-4 0,10e-4 2.4608e-4,2.4e-4 7.9798e-4,-2.5e-4 0.001044,0 4.9212e-4,4.9e-4 -3.1115e-4,0.001 0,0.002 2.2009e-4,4.4e-4 8.2391e-4,6.1e-4 0.001044,0.001 3.1115e-4,6.2e-4 -4.9212e-4,0.002 0,0.002 2.4608e-4,2.4e-4 7.9798e-4,-2.5e-4 0.001044,0 4.9212e-4,4.9e-4 -4.9213e-4,0.002 0,0.002 0.00216,0.002 -8.444e-5,-0.003 0.002088,0.001 1.5563e-4,3.1e-4 -2.4608e-4,8e-4 0,10e-4 2.4608e-4,2.5e-4 7.3263e-4,-1.5e-4 0.001044,0 4.4027e-4,2.2e-4 6.0378e-4,8.3e-4 0.001044,10e-4 5.462e-5,3e-5 0.003077,3e-5 0.003132,0 8.8027e-4,-4.4e-4 0.001208,-0.002 0.002088,-0.002 3.1115e-4,-1.5e-4 6.9612e-4,0 0.001044,0 6.9611e-4,-6.9e-4 0.001269,-0.002 0.002088,-0.002 0.001295,-8.6e-4 0.003076,-9.8e-4 0.004176,-0.002 0.0011,-10e-4 9.8743e-4,-0.003 0.002088,-0.004 0.0011,-10e-4 0.002961,-10e-4 0.004176,-0.002 0.002306,-0.002 0.004394,-0.004 0.006264,-0.006 0.007259,-0.009 -0.001408,-0.002 0.007308,-0.0104 0.00123,-10e-4 0.003108,-0.002 0.004176,-0.003 0.001433,-0.002 0.001837,-0.004 0.003132,-0.006 0.001508,-0.002 0.003661,-0.004 0.00522,-0.006 8.9164e-4,-0.001 0.001333,-0.003 0.002088,-0.004 0.007222,-0.013 -0.001098,0.003 0.006264,-0.0115 0.001045,-0.002 0.002394,-0.004 0.003132,-0.006 6.6939e-4,-0.002 2.5783e-4,-0.004 0.001045,-0.006 6.4558e-4,-0.002 0.002167,-0.003 0.003132,-0.004 0.001124,-0.002 0.002006,-0.004 0.003132,-0.005 0.00468,-0.007 0.002106,-0.002 0.007308,-0.0104 0.001177,-0.002 0.001955,-0.004 0.003132,-0.006 0.003422,-0.006 0.008063,-0.0108 0.0114842,-0.0167 0.001177,-0.002 0.001836,-0.004 0.003132,-0.006 0.001508,-0.002 0.003522,-0.004 0.00522,-0.006 0.001087,-10e-4 0.001987,-0.003 0.003132,-0.004 0.001296,-0.001 0.003084,-0.003 0.004176,-0.004 0.001728,-0.003 0.002307,-0.006 0.004176,-0.008 0.001336,-0.002 0.003644,-0.003 0.00522,-0.004 0.00123,-10e-4 0.001987,-0.003 0.003132,-0.004 0.001296,-0.001 0.002995,-0.003 0.004176,-0.004 9.3398e-4,-0.001 0.001154,-0.003 0.002088,-0.004 0.00118,-0.002 0.00288,-0.003 0.004176,-0.004 0.002291,-0.003 0.003972,-0.006 0.006264,-0.008 0.001296,-10e-4 0.002995,-0.003 0.004176,-0.004 9.3398e-4,-0.001 0.001154,-0.003 0.002088,-0.004 0.00118,-0.002 0.002846,-0.003 0.004176,-0.004 0.0150492,-0.0164 -4.0482e-4,-6.4e-4 0.0146164,-0.0157 0.003132,-0.003 0.005993,-0.007 0.009396,-0.009 0.002892,-0.002 0.006412,-0.004 0.009396,-0.006 0.001561,-0.001 0.002725,-0.003 0.004176,-0.004 0.003107,-0.003 0.0142613,-0.0126 0.0177485,-0.0146 0.00154,-8.8e-4 0.003633,-2.5e-4 0.00522,-10e-4 0.002678,-10e-4 0.004872,-0.003 0.007308,-0.005 0.002437,-0.002 0.004847,-0.004 0.007308,-0.005 0.002064,-0.001 0.004399,-0.002 0.006264,-0.004 0.001656,-10e-4 0.0025,-0.004 0.004176,-0.005 0.001172,-10e-4 0.002901,-10e-4 0.004176,-0.002 0.002228,-0.002 0.004003,-0.004 0.006264,-0.005 9.1546e-4,-6.1e-4 0.002273,-3.6e-4 0.003132,-10e-4 9.7896e-4,-7.8e-4 0.001304,-0.002 0.002088,-0.003 6.1383e-4,-7.7e-4 0.001392,-0.001 0.002088,-0.002 6.9586e-4,-6.9e-4 0.001244,-0.002 0.002088,-0.002 9.4457e-4,-5.7e-4 0.002252,-3.9e-4 0.003132,-10e-4 6.2177e-4,-4.7e-4 4.9477e-4,-0.002 0.001045,-0.002 5.5033e-4,-5.5e-4 0.001439,-6.1e-4 0.002088,-0.001 4.101e-4,-2.7e-4 6.9585e-4,-7e-4 0.001045,-10e-4 7.3025e-4,-7.4e-4 0.002402,-0.002 0.003132,-0.003 6.1383e-4,-6.1e-4 0.003934,-0.004 0.004176,-0.004 1.5563e-4,-3.1e-4 0,-7e-4 0,-10e-4"
       id="path3774"
       inkscape:connector-curvature="0" />
    <path
       style="fill:none;stroke:#000000;stroke-width:0.26458332px;stroke-linecap:butt;stroke-linejoin:miter;stroke-opacity:1"
       d="m 0.29023799,296.86218 c 0,-0.0111 0,-0.0223 0,-0.0334 0,-0.002 -2.4958e-4,-0.009 0,-0.009 2.6988e-4,-9.5e-4 0.001648,-10e-4 0.002088,-0.002 3.1221e-4,-6.2e-4 0,-0.001 0,-0.002 0,-0.002 0,-0.004 0,-0.006 0,-0.005 0,-0.01 0,-0.0146 0,-0.001 -2.2714e-4,-0.006 0,-0.006 2.4607e-4,-7.4e-4 9.1546e-4,-10e-4 0.001045,-0.002 2.2884e-4,-10e-4 0,-0.003 0,-0.004 0,-0.002 0,-0.004 0,-0.006 0,-10e-4 0,-0.003 0,-0.004 0,-0.001 2.8575e-4,-0.002 0,-0.003 -4.2863e-4,-10e-4 -0.001752,-0.003 -0.002088,-0.004 -3.7836e-4,-0.002 4.2333e-4,-0.004 0,-0.005 -6.4294e-4,-0.003 -0.002225,-0.005 -0.003132,-0.007 -4.8948e-4,-0.001 -6.9586e-4,-0.003 -0.001045,-0.004 -6.9585e-4,-0.003 -0.00118,-0.006 -0.002088,-0.008 -0.002127,-0.006 -0.002307,-0.004 -0.003132,-0.0104 -1.2951e-4,-0.001 2.5321e-4,-0.002 0,-0.003 -0.001291,-0.005 -0.001045,0.002 -0.001045,-0.002"
       id="path3776"
       inkscape:connector-curvature="0" />
    <path
       style="fill:none;stroke:#000000;stroke-width:0.26458332px;stroke-linecap:butt;stroke-linejoin:miter;stroke-opacity:1"
       d="m -0.01148424,296.46649 c 0.001392,3.5e-4 0.00278406,7e-4 0.00417609,10e-4 0,3.4e-4 -3.1126e-4,8.8e-4 0,10e-4 6.2254e-4,3.1e-4 0.00142774,-2.2e-4 0.00208804,0 4.6691e-4,1.6e-4 5.7711e-4,8.9e-4 0.00104402,0.001 6.6029e-4,2.2e-4 0.00150892,-3.8e-4 0.00208804,0 6.4747e-4,4.4e-4 3.4801e-4,0.002 0.00104402,0.002 0.001587159,8e-4 0.00359855,3.3e-4 0.00522011,10e-4 0.00159006,7e-4 0.00261974,0.002 0.00417609,0.003 0.00170246,0.006 0.00571446,9.6e-4 0.00835217,0.002 0.01033101,0.004 -4.3289e-4,0.003 0.01357228,0.006 0.0027219,6.8e-4 0.0056302,3.6e-4 0.0083522,10e-4 0.0042706,0.001 0.0083522,0.003 0.01252826,0.004 0.0048721,7e-4 0.0098119,10e-4 0.01461629,0.002 0.009271,0.002 0.01394577,0.005 0.02296848,0.006 0.0058873,6.8e-4 0.01189453,1.2e-4 0.01774839,0.001 0.00742,10e-4 0.0145965,0.004 0.0219245,0.005 0.003462,7.8e-4 0.00697,10e-4 0.0104402,0.002 0.006274,0.001 0.012479,0.003 0.0187924,0.004 0.005181,9.4e-4 0.0104719,0.001 0.0156603,0.002 0.002827,4.9e-4 0.005568,10e-4 0.008352,0.002 0.006264,10e-4 0.0124501,0.003 0.0187924,0.004 0.007256,0.001 0.0146436,0.001 0.0219245,0.002 0.00352,4.6e-4 0.00696,0.001 0.0104402,0.002 0.005916,7e-4 0.0118242,10e-4 0.0177484,0.002 0.0622403,0.007 -0.010389,-7.4e-4 0.0375848,0.002 0.006637,3.9e-4 0.0132046,0.002 0.0198363,0.002 0.003124,2.3e-4 0.006264,0 0.009396,0 0.006264,0 0.0125283,0 0.0187923,0 0.004176,0 0.008367,-3.4e-4 0.0125283,0 0.004219,3.5e-4 0.008314,0.002 0.0125283,0.002 0.003118,3e-4 0.006275,-2.6e-4 0.009396,0 0.0644784,0.005 -0.0306164,-10e-4 0.0302766,0.004 0.00312,2.7e-4 0.006288,-3.9e-4 0.009396,0 0.0742491,0.009 -0.0260551,-5.8e-4 0.048025,0.007 0.0633355,0.007 -0.003926,-5.4e-4 0.0407168,0.002 0.0485026,0.003 -0.010333,0.002 0.0417609,0.002 0.0135723,0 0.0271446,0 0.0407169,0 0.002784,0 0.005568,0 0.008352,0 0.001392,0 0.002784,0 0.004176,0 3.4925e-4,0 7.9904e-4,2.5e-4 0.001045,0 2.4606e-4,-2.4e-4 2.4606e-4,-8e-4 0,-0.001 -2.4609e-4,-2.5e-4 -7.3289e-4,1.5e-4 -0.001045,0 -8.8106e-4,-4.4e-4 -0.00127,-0.002 -0.002088,-0.002 -6.4823e-4,-4.3e-4 -0.001537,-4.9e-4 -0.002088,-10e-4 -8.8635e-4,-8.9e-4 -0.001442,-0.002 -0.002088,-0.003 -3.9952e-4,-6.6e-4 -4.9477e-4,-0.002 -0.001045,-0.002 -0.00123,-0.001 -0.002784,-0.002 -0.004176,-0.003 -0.001392,-0.001 -0.002751,-0.002 -0.004176,-0.003 -0.002056,-10e-4 -0.004399,-0.002 -0.006264,-0.004 -0.001656,-0.001 -0.002424,-0.004 -0.004176,-0.005 -0.003191,-0.003 -0.007115,-0.004 -0.0104402,-0.006 -0.0117488,-0.008 -0.007586,-0.008 -0.0187923,-0.0136 -0.002339,-10e-4 -0.00497,-0.002 -0.007308,-0.003 -0.003558,-0.002 -0.0175263,-0.0114 -0.0198363,-0.0125 -0.003643,-0.002 -0.007776,-0.002 -0.0114842,-0.004 -0.0348152,-0.0158 0.0107831,0.002 -0.0229685,-0.009 -0.001476,-5e-4 -0.002675,-0.002 -0.004176,-0.002 -0.002373,-6.5e-4 -0.00491,-4.9e-4 -0.007308,-10e-4 -0.002146,-4.9e-4 -0.004101,-0.002 -0.006264,-0.002 -0.008722,-0.002 -0.0182901,-10e-4 -0.0271445,-10e-4 -0.005916,0 -0.0118322,0 -0.0177483,0 -0.002437,0 -0.004872,0 -0.007308,0 -0.001741,0 -0.003485,-1.3e-4 -0.00522,0 -0.011471,8.8e-4 -0.004957,5e-4 -0.0146164,0.003 -0.003079,8.4e-4 -0.0085,10e-4 -0.0114842,0.002 -0.003146,6.3e-4 -0.006273,10e-4 -0.009396,0.002 -0.002793,6.6e-4 -0.00556,10e-4 -0.008352,0.002 -0.004517,10e-4 -0.009115,0.002 -0.0135723,0.003 -0.00391,10e-4 -0.007532,0.003 -0.0114842,0.004 -0.004441,0.001 -0.009057,0.001 -0.0135723,0.002 -0.0128789,0.002 -0.0114803,0.002 -0.0250566,0.005 -0.003129,7.2e-4 -0.006352,0.001 -0.009396,0.002 -0.005334,0.002 -0.0103881,0.004 -0.0156604,0.006 -0.0435653,0.0161 0.010201,-0.004 -0.0208804,0.006 -0.004598,0.002 -0.009021,0.004 -0.0135723,0.005 -0.00589,0.002 -0.0118153,0.004 -0.0177483,0.006 -0.005204,0.002 -0.0105155,0.003 -0.0156603,0.005 -0.004956,0.002 -0.009629,0.004 -0.0146163,0.006 -0.003733,0.001 -0.00772,0.002 -0.0114842,0.003 -0.0133242,0.004 -0.0262214,0.0101 -0.0386288,0.0167 -0.006909,0.004 -0.0103332,0.005 -0.0156603,0.0104 -0.004667,0.005 -0.005707,0.007 -0.009396,0.0125 -9.9775e-4,0.001 -0.002354,0.003 -0.003132,0.004 -6.4162e-4,0.001 -5.9029e-4,0.003 -0.001044,0.004 -5.9266e-4,0.002 -0.001753,0.003 -0.002088,0.005 -3.7359e-4,0.002 0,0.004 0,0.006 0,0.004 0,0.008 0,0.0125 0,0.007 -4.0957e-4,0.01 0.002088,0.0167 0.003874,0.0111 0.005993,0.01 0.0114842,0.0198 0.002026,0.004 0.003512,0.008 0.00522,0.0115 0.001076,0.002 0.001662,0.005 0.003132,0.007 0.002736,0.004 0.0110627,0.0121 0.0146163,0.0157 0.005545,0.006 0.0107021,0.0119 0.0177483,0.0157 0.002624,10e-4 0.005771,0.002 0.008352,0.003 0.00236,0.001 0.003904,0.004 0.006264,0.005 0.004464,0.003 0.0118132,0.004 0.0167043,0.005 0.005228,0.001 0.0103865,0.003 0.0156603,0.004 0.002563,5.7e-4 0.0167652,0.003 0.0208804,0.003 0.002779,1.8e-4 0.005568,0 0.008352,0 0.002436,0 0.004872,0 0.007308,0 0.008004,0 0.0160083,0 0.0240125,0"
       id="path3778"
       inkscape:connector-curvature="0" />
  </g>
</svg>
